<svg width="110" height="37" viewBox="0 0 110 37" fill="none" xmlns="http://www.w3.org/2000/svg">
<path fill-rule="evenodd" clip-rule="evenodd" d="M0.639548 13.392C-0.148734 16.0997 -0.317191 20.6261 0.759182 22.9577C1.17318 23.8545 2.55277 23.4599 2.55277 22.3599C2.54053 22.1559 2.52843 21.9567 2.51659 21.7619C2.18145 16.2459 2.06158 14.2728 5.243 9.14721C7.39528 5.67964 11.4607 3.69041 13.3739 3.16864L13.4443 3.14944C15.3095 2.64061 16.2229 2.39143 19.3526 2.39143C21.5645 2.39143 20.8352 0 19.3526 0C15.7056 0.0597857 13.2542 0.298928 9.60735 2.21207C5.39949 4.41955 2.01457 8.66893 0.639548 13.392ZM5.66162 19.1314C3.55717 23.149 3.41576 25.0502 3.6887 27.1427C3.84335 28.3284 5.66162 28.3384 5.66162 27.1427C5.66162 23.436 7.26519 20.2542 9.24876 18.1151C10.7163 16.5324 13.0846 15.2636 15.5264 13.9554L15.5264 13.9554L15.5264 13.9554L15.5264 13.9554C18.1577 12.5457 20.8743 11.0903 22.6408 9.14721C25.0322 6.51664 25.5532 3.22843 25.2115 2.03271C24.8699 0.837 23.1191 0.237397 23.1191 2.511C23.1191 5.50028 22.0037 6.84756 19.8308 8.66893C18.3605 9.90141 16.469 10.9071 14.52 11.9434C11.08 13.7724 7.46074 15.6967 5.66162 19.1314ZM20.218 13.2596L20.218 13.2595L20.218 13.2595C21.5334 12.3776 22.8786 11.4757 23.5973 10.7016C25.4162 8.74282 26.4074 6.91901 26.7062 4.6035C26.9453 2.75014 28.3802 3.54728 28.6193 4.185C28.8585 4.82271 28.715 7.34168 27.1845 9.68528C25.2713 12.6148 23.1191 14.229 20.907 15.5443C19.3901 16.4462 19.0539 16.8984 18.7226 17.3441C18.5707 17.5483 18.4199 17.7513 18.1568 17.9955C17.4872 18.6173 16.1035 17.2226 16.7818 16.0226C17.1996 15.2833 18.6887 14.2849 20.218 13.2596ZM13.4341 27.3214C11.9744 28.6595 9.90671 30.9684 10.385 34.0175C10.6101 35.4524 12.7764 35.5121 12.5971 33.4794C12.2588 29.6453 16.2678 27.8254 20.9154 25.7156L20.9155 25.7155L20.9162 25.7152L20.9182 25.7143C21.2701 25.5545 21.6258 25.3931 21.9834 25.229C27.0652 22.8974 29.8556 19.8971 31.31 16.6796C33.2018 12.4946 32.8644 9.38561 32.2666 7.05405C31.9398 5.77993 30.034 5.33798 30.2936 7.23342C30.9513 12.0342 30.5368 16.3721 25.0923 20.6853C23.6338 21.8407 21.6096 22.7935 19.5751 23.7512C17.2729 24.835 14.9575 25.9248 13.4341 27.3214ZM9.60778 24.3322C7.45549 26.1856 6.79785 29.2944 6.79785 30.6097C6.79785 32.4033 8.89035 32.2239 8.89035 30.6097C8.95014 27.7998 11.5209 25.1094 14.4504 23.555C15.2348 23.1388 16.1092 22.7311 16.9899 22.3206L16.9899 22.3206C19.3982 21.1979 21.8531 20.0534 22.6411 18.6526C23.3691 17.3582 21.8738 16.3807 21.0268 17.3971C20.429 18.1145 19.5478 18.8319 17.2603 19.7885C13.9721 21.1636 11.7601 22.4789 9.60778 24.3322ZM16.0048 34.0175C21.2062 34.137 28.1386 32.27 32.4459 25.229C35.3787 20.4349 34.4807 15.1087 34.0684 12.6638L34.0681 12.6622C34.0435 12.5161 34.0206 12.3802 34.0003 12.2554C33.7896 10.9557 35.3156 9.98346 35.9135 11.7771C36.6309 13.9294 38.5441 21.2831 33.1633 28.3976C27.7826 35.5121 21.1464 36.1099 17.1408 36.1099C14.0917 36.1099 15.2876 34.001 16.0048 34.0175Z" fill="url(#paint0_linear_396_268)"/>
<path fill-rule="evenodd" clip-rule="evenodd" d="M48.5521 22.1576C48.9393 22.4895 49.3819 22.6554 49.8798 22.6554C50.3777 22.6554 50.8064 22.4895 51.166 22.1576C51.5533 21.798 51.7469 21.383 51.7469 20.9128L51.6639 17.0956C51.6639 16.5424 51.9405 16.2658 52.4938 16.2658H54.9417C56.6014 16.2658 57.9706 15.7402 59.0494 14.6891C60.1281 13.638 60.6675 12.2688 60.6675 10.5815C60.6675 9.03248 60.1143 7.78774 59.0079 6.84727C57.9291 5.9068 56.5599 5.43657 54.9002 5.43657H50.7096C49.9075 5.43657 49.2574 5.68552 48.7595 6.18341C48.2616 6.68131 48.0127 7.33134 48.0127 8.1335V20.9128C48.0127 21.383 48.1925 21.798 48.5521 22.1576ZM54.4853 12.9465H52.2863C51.8714 12.9465 51.6639 12.739 51.6639 12.3241V9.37824C51.6639 8.96333 51.8714 8.75587 52.2863 8.75587H54.6513C56.2556 8.75587 57.0578 9.44739 57.0578 10.8304C57.0578 12.2411 56.2003 12.9465 54.4853 12.9465Z" fill="white"/>
<path fill-rule="evenodd" clip-rule="evenodd" d="M63.4254 20.9128C64.5872 22.0746 66.0947 22.6554 67.948 22.6554C69.248 22.6554 70.3406 22.2544 71.2258 21.4522C71.4471 22.2544 72.0141 22.6554 72.9269 22.6554C73.4801 22.6554 73.9227 22.5033 74.2546 22.199C74.6142 21.8948 74.794 21.5075 74.794 21.0373V11.6188C74.794 11.1762 74.6142 10.8028 74.2546 10.4985C73.9227 10.1666 73.4801 10.0006 72.9269 10.0006C72.512 10.0006 72.1524 10.1113 71.8481 10.3325C71.5439 10.5538 71.3364 10.8304 71.2258 11.1624C70.2576 10.2496 69.1235 9.79315 67.8235 9.79315C65.9979 9.79315 64.518 10.374 63.3839 11.5358C62.2775 12.6699 61.7243 14.2189 61.7243 16.1828C61.7243 18.1467 62.2913 19.7234 63.4254 20.9128ZM70.3545 18.4233C69.8289 19.0042 69.1235 19.2947 68.2384 19.2947C67.3809 19.2947 66.6756 19.0042 66.1223 18.4233C65.5968 17.8148 65.334 17.068 65.334 16.1828C65.334 15.27 65.5968 14.537 66.1223 13.9838C66.6756 13.4306 67.3809 13.1539 68.2384 13.1539C69.1235 13.1539 69.8289 13.4306 70.3545 13.9838C70.88 14.537 71.1428 15.27 71.1428 16.1828C71.1428 17.068 70.88 17.8148 70.3545 18.4233Z" fill="white"/>
<path d="M78.4916 22.199C78.8512 22.5033 79.2938 22.6554 79.8193 22.6554C80.3172 22.6554 80.7321 22.5033 81.0641 22.199C81.4237 21.8671 81.6035 21.466 81.6035 20.9958V11.6603C81.6035 11.19 81.4375 10.8028 81.1056 10.4985C80.8013 10.1666 80.3725 10.0006 79.8193 10.0006C79.2661 10.0006 78.8097 10.1666 78.4501 10.4985C78.1182 10.8028 77.9522 11.1762 77.9522 11.6188V21.0373C77.9522 21.5075 78.132 21.8948 78.4916 22.199Z" fill="white"/>
<path d="M78.3256 7.38666C78.7406 7.74625 79.2384 7.92605 79.8193 7.92605C80.3725 7.92605 80.8428 7.74625 81.23 7.38666C81.6449 6.99941 81.8524 6.51534 81.8524 5.93447C81.8524 5.40891 81.6449 4.9525 81.23 4.56525C80.8428 4.178 80.3725 3.98438 79.8193 3.98438C79.2384 3.98438 78.7406 4.178 78.3256 4.56525C77.9107 4.9525 77.7033 5.40891 77.7033 5.93447C77.7033 6.51534 77.9107 6.99941 78.3256 7.38666Z" fill="white"/>
<path d="M84.6291 21.4937C85.8461 22.2682 87.3952 22.6554 89.2761 22.6554C90.9081 22.6554 92.222 22.2959 93.2178 21.5767C94.2136 20.8298 94.7115 19.834 94.7115 18.5893C94.7115 17.6765 94.5178 16.9573 94.1306 16.4318C93.7433 15.9062 93.2593 15.5328 92.6784 15.3115C92.1252 15.0625 91.5443 14.8966 90.9357 14.8136C90.3272 14.703 89.7878 14.62 89.3176 14.5647C88.5707 14.454 88.0867 14.3295 87.8654 14.1912C87.6718 14.0253 87.575 13.8455 87.575 13.6518C87.575 13.2093 88.1005 12.988 89.1516 12.988C89.6772 12.988 90.1889 13.0433 90.6868 13.1539C91.2124 13.2646 91.6411 13.4306 91.973 13.6518C92.1943 13.7625 92.4294 13.8178 92.6784 13.8178C93.1486 13.8178 93.5359 13.6518 93.8401 13.3199C94.1444 12.988 94.2965 12.6146 94.2965 12.1996C94.2965 11.7294 94.1029 11.3145 93.7157 10.9549C93.3008 10.5677 92.6784 10.2772 91.8486 10.0836C91.0464 9.88997 90.1889 9.79315 89.2761 9.79315C87.6994 9.79315 86.4409 10.1527 85.5004 10.8719C84.5599 11.5911 84.0897 12.5731 84.0897 13.8178C84.0897 14.62 84.2695 15.2562 84.6291 15.7264C85.0163 16.1966 85.4866 16.5562 86.0398 16.8052C86.593 17.0265 87.1462 17.1786 87.6994 17.2616C88.2803 17.3446 88.7505 17.3999 89.1101 17.4275C90.0229 17.5105 90.6038 17.6627 90.8528 17.884C91.1017 18.0776 91.2262 18.3127 91.2262 18.5893C91.2262 19.0595 90.7145 19.2947 89.691 19.2947C89.1655 19.2947 88.5846 19.2255 87.9484 19.0872C87.3122 18.9212 86.7451 18.7276 86.2472 18.5063C86.0259 18.3957 85.8047 18.3404 85.5834 18.3404C85.1131 18.3404 84.7121 18.534 84.3801 18.9212C84.0759 19.3085 83.9237 19.7372 83.9237 20.2075C83.9237 20.4288 83.979 20.6639 84.0897 20.9128C84.2003 21.1341 84.3801 21.3277 84.6291 21.4937Z" fill="white"/>
<path fill-rule="evenodd" clip-rule="evenodd" d="M97.8664 20.9128C99.0282 22.0746 100.536 22.6554 102.389 22.6554C103.689 22.6554 104.782 22.2544 105.667 21.4522C105.888 22.2544 106.455 22.6554 107.368 22.6554C107.921 22.6554 108.364 22.5033 108.696 22.199C109.055 21.8948 109.235 21.5075 109.235 21.0373V11.6188C109.235 11.1762 109.055 10.8028 108.696 10.4985C108.364 10.1666 107.921 10.0006 107.368 10.0006C106.953 10.0006 106.593 10.1113 106.289 10.3325C105.985 10.5538 105.777 10.8304 105.667 11.1624C104.699 10.2496 103.565 9.79315 102.264 9.79315C100.439 9.79315 98.959 10.374 97.8249 11.5358C96.7185 12.6699 96.1653 14.2189 96.1653 16.1828C96.1653 18.1467 96.7323 19.7234 97.8664 20.9128ZM104.795 18.4233C104.27 19.0042 103.565 19.2947 102.679 19.2947C101.822 19.2947 101.117 19.0042 100.563 18.4233C100.038 17.8148 99.775 17.068 99.775 16.1828C99.775 15.27 100.038 14.537 100.563 13.9838C101.117 13.4306 101.822 13.1539 102.679 13.1539C103.565 13.1539 104.27 13.4306 104.795 13.9838C105.321 14.537 105.584 15.27 105.584 16.1828C105.584 17.068 105.321 17.8148 104.795 18.4233Z" fill="white"/>
<path d="M51.6111 30.491C51.6786 30.5523 51.7523 30.583 51.8321 30.583C51.918 30.583 51.9917 30.5523 52.053 30.491C52.1206 30.4357 52.1543 30.3682 52.1543 30.2884V29.1836C52.1543 29.0301 52.228 28.9534 52.3753 28.9534H53.342C53.428 28.9534 53.4985 28.9258 53.5538 28.8705C53.609 28.8092 53.6366 28.7416 53.6366 28.668C53.6366 28.5943 53.6121 28.5299 53.563 28.4746C53.52 28.4133 53.4464 28.3826 53.342 28.3826H52.3753C52.228 28.3826 52.1543 28.3028 52.1543 28.1432V27.6184C52.1543 27.4588 52.2341 27.379 52.3937 27.379H53.4249C53.5108 27.379 53.5814 27.3514 53.6366 27.2961C53.6919 27.2409 53.7195 27.1734 53.7195 27.0936C53.7195 27.0138 53.695 26.9463 53.6459 26.891C53.6029 26.8358 53.5292 26.8082 53.4249 26.8082H51.9886C51.8597 26.8082 51.7461 26.8542 51.6479 26.9463C51.5559 27.0322 51.5098 27.1458 51.5098 27.2869V30.2884C51.5098 30.3682 51.5436 30.4357 51.6111 30.491Z" fill="white"/>
<path d="M55.336 30.5002C55.4035 30.5554 55.4772 30.583 55.557 30.583C55.6429 30.583 55.7165 30.5554 55.7779 30.5002C55.8454 30.4511 55.8792 30.3774 55.8792 30.2792V27.066C55.8792 26.9616 55.8454 26.8849 55.7779 26.8358C55.7165 26.7867 55.6429 26.7621 55.557 26.7621C55.4772 26.7621 55.4035 26.7867 55.336 26.8358C55.2685 26.8849 55.2347 26.9616 55.2347 27.066V30.2792C55.2347 30.3774 55.2685 30.4511 55.336 30.5002Z" fill="white"/>
<path d="M57.683 30.5094C57.7506 30.5585 57.8242 30.583 57.904 30.583C57.9899 30.583 58.0636 30.5585 58.125 30.5094C58.1925 30.4603 58.2263 30.3866 58.2263 30.2884L58.1986 28.1064C58.1986 28.0204 58.2263 27.9775 58.2815 27.9775C58.3183 27.9775 58.3521 28.002 58.3828 28.0511L59.8743 30.3713C59.9234 30.4449 59.9817 30.4971 60.0492 30.5278C60.1229 30.5646 60.1966 30.583 60.2702 30.583C60.3746 30.583 60.4666 30.5493 60.5464 30.4818C60.6262 30.4142 60.6661 30.313 60.6661 30.1779V27.0568C60.6661 26.9585 60.6324 26.8849 60.5648 26.8358C60.4973 26.7867 60.4237 26.7621 60.3439 26.7621C60.2641 26.7621 60.1904 26.7867 60.1229 26.8358C60.0554 26.8849 60.0216 26.9585 60.0216 27.0568L60.0585 29.2756C60.0585 29.3616 60.0308 29.4045 59.9756 29.4045C59.9388 29.4045 59.905 29.38 59.8743 29.3309L58.3552 26.9463C58.2815 26.8235 58.1649 26.7621 58.0053 26.7621C57.9009 26.7621 57.8027 26.799 57.7107 26.8726C57.6247 26.9401 57.5818 27.0445 57.5818 27.1856V30.2884C57.5818 30.3866 57.6155 30.4603 57.683 30.5094Z" fill="white"/>
<path d="M64.6694 30.491C64.8903 30.4357 65.053 30.3682 65.1573 30.2884C65.2617 30.2086 65.3139 30.1135 65.3139 30.003C65.3139 29.9293 65.2893 29.8649 65.2402 29.8096C65.1911 29.7483 65.1266 29.7176 65.0468 29.7176C64.9977 29.7176 64.9394 29.736 64.8719 29.7728C64.7921 29.8342 64.6724 29.8925 64.5128 29.9478C64.3533 29.9969 64.1906 30.0214 64.0249 30.0214C63.6505 30.0214 63.3497 29.8894 63.1226 29.6255C62.8955 29.3616 62.7819 29.0424 62.7819 28.668C62.7819 28.4163 62.831 28.1861 62.9292 27.9775C63.0336 27.7688 63.1778 27.603 63.362 27.4803C63.5461 27.3514 63.7609 27.2869 64.0065 27.2869C64.1354 27.2869 64.2643 27.3023 64.3932 27.333C64.5282 27.3637 64.6448 27.3974 64.743 27.4342C64.7921 27.4527 64.8351 27.4619 64.8719 27.4619C64.9578 27.4619 65.0254 27.4312 65.0745 27.3698C65.1297 27.3084 65.1573 27.2378 65.1573 27.158C65.1573 27.1089 65.142 27.0598 65.1113 27.0107C65.0867 26.9555 65.0438 26.9125 64.9824 26.8818C64.8289 26.8204 64.6755 26.7775 64.522 26.7529C64.3747 26.7284 64.2244 26.7161 64.0709 26.7161C63.6842 26.7161 63.3436 26.799 63.0489 26.9647C62.7604 27.1243 62.5364 27.3483 62.3768 27.6368C62.2172 27.9253 62.1374 28.2567 62.1374 28.6311C62.1374 29.0117 62.2203 29.3493 62.386 29.6439C62.5518 29.9385 62.7758 30.1687 63.0581 30.3344C63.3405 30.5002 63.6597 30.583 64.0157 30.583C64.2305 30.583 64.4484 30.5523 64.6694 30.491Z" fill="white"/>
<path fill-rule="evenodd" clip-rule="evenodd" d="M66.8298 30.491C66.8973 30.5523 66.9709 30.583 67.0507 30.583C67.1367 30.583 67.2103 30.5523 67.2717 30.491C67.3331 30.4357 67.3638 30.3682 67.3638 30.2884V29.3401C67.3638 29.1559 67.4436 29.0639 67.6032 29.0639H67.8333C67.9806 29.0639 68.1157 29.0976 68.2384 29.1652C68.3612 29.2327 68.4625 29.3554 68.5423 29.5334L68.9198 30.4173C68.9689 30.5339 69.0548 30.5922 69.1776 30.5922C69.2512 30.5922 69.3218 30.5677 69.3893 30.5186C69.463 30.4695 69.4998 30.3897 69.4998 30.2792C69.4998 30.2362 69.4906 30.1963 69.4722 30.1595L69.1407 29.4137C69.0793 29.2787 69.0088 29.1713 68.929 29.0915C68.8553 29.0056 68.7755 28.9442 68.6896 28.9074C68.886 28.8398 69.0456 28.7109 69.1683 28.5207C69.2972 28.3242 69.3617 28.1186 69.3617 27.9038C69.3617 27.6767 69.3064 27.4833 69.196 27.3238C69.0855 27.158 68.9382 27.0322 68.754 26.9463C68.576 26.8542 68.3827 26.8082 68.174 26.8082H67.2717C67.1428 26.8082 67.02 26.8511 66.9034 26.9371C66.7929 27.023 66.7377 27.1488 66.7377 27.3145V30.2884C66.7377 30.3682 66.7684 30.4357 66.8298 30.491ZM68.0819 28.5115H67.5663C67.4313 28.5115 67.3638 28.4409 67.3638 28.2997V27.6C67.3638 27.4465 67.4405 27.3698 67.594 27.3698H68.1187C68.2722 27.3698 68.4134 27.4158 68.5423 27.5079C68.6773 27.6 68.7448 27.7381 68.7448 27.9222C68.7448 28.1125 68.6712 28.2598 68.5239 28.3641C68.3827 28.4624 68.2354 28.5115 68.0819 28.5115Z" fill="white"/>
<path d="M71.0671 30.3529C71.1592 30.4449 71.282 30.491 71.4354 30.491H72.8901C72.9822 30.491 73.0528 30.4633 73.1019 30.4081C73.1571 30.3529 73.1848 30.2884 73.1848 30.2148C73.1848 30.1411 73.1602 30.0766 73.1111 30.0214C73.0681 29.96 72.9945 29.9293 72.8901 29.9293H71.8037C71.6503 29.9293 71.5735 29.8495 71.5735 29.69V29.1283C71.5735 28.9749 71.6472 28.8982 71.7945 28.8982H72.706C72.7981 28.8982 72.8686 28.8705 72.9178 28.8153C72.973 28.7539 73.0006 28.6895 73.0006 28.6219C73.0006 28.5483 72.9761 28.4838 72.927 28.4286C72.884 28.3734 72.8103 28.3457 72.706 28.3457H71.7945C71.6472 28.3457 71.5735 28.2659 71.5735 28.1064V27.6C71.5735 27.4404 71.6533 27.3606 71.8129 27.3606H72.7981C72.8901 27.3606 72.9607 27.333 73.0098 27.2777C73.0651 27.2225 73.0927 27.158 73.0927 27.0844C73.0927 27.0046 73.0681 26.9401 73.019 26.891C72.9761 26.8358 72.9024 26.8082 72.7981 26.8082H71.4078C71.2789 26.8082 71.1654 26.8542 71.0671 26.9463C70.9751 27.0322 70.929 27.1458 70.929 27.2869V29.9846C70.929 30.138 70.9751 30.2608 71.0671 30.3529Z" fill="white"/>
<path fill-rule="evenodd" clip-rule="evenodd" d="M74.8725 30.3621C74.9891 30.448 75.1119 30.491 75.2408 30.491H76.1799C76.5114 30.491 76.8029 30.4112 77.0546 30.2516C77.3124 30.0859 77.5119 29.8649 77.653 29.5887C77.8003 29.3125 77.874 29.0056 77.874 28.668C77.874 28.2813 77.7942 27.9498 77.6346 27.6736C77.4812 27.3974 77.2633 27.1856 76.9809 27.0383C76.7047 26.8849 76.3825 26.8082 76.0142 26.8082H75.1856C75.0567 26.8082 74.9431 26.8542 74.8449 26.9463C74.7528 27.0322 74.7068 27.1458 74.7068 27.2869V29.9938C74.7068 30.1534 74.762 30.2761 74.8725 30.3621ZM76.0234 29.9201H75.6183C75.4403 29.9201 75.3513 29.8281 75.3513 29.6439V27.6552C75.3513 27.4711 75.4433 27.379 75.6275 27.379H76.0142C76.407 27.379 76.7078 27.4895 76.9165 27.7104C77.1252 27.9314 77.2326 28.2506 77.2387 28.668C77.2448 29.0792 77.1436 29.3923 76.9349 29.6071C76.7262 29.8158 76.4224 29.9201 76.0234 29.9201Z" fill="white"/>
<path d="M79.495 30.5002C79.5625 30.5554 79.6362 30.583 79.716 30.583C79.8019 30.583 79.8756 30.5554 79.9369 30.5002C80.0045 30.4511 80.0382 30.3774 80.0382 30.2792V27.066C80.0382 26.9616 80.0045 26.8849 79.9369 26.8358C79.8756 26.7867 79.8019 26.7621 79.716 26.7621C79.6362 26.7621 79.5625 26.7867 79.495 26.8358C79.4275 26.8849 79.3937 26.9616 79.3937 27.066V30.2792C79.3937 30.3774 79.4275 30.4511 79.495 30.5002Z" fill="white"/>
<path d="M82.6062 30.5002C82.6676 30.5554 82.7474 30.583 82.8456 30.583C82.9438 30.583 83.0206 30.5554 83.0758 30.5002C83.1372 30.4449 83.1679 30.3743 83.1679 30.2884V27.6092C83.1679 27.4557 83.2477 27.379 83.4073 27.379H83.9781C84.064 27.379 84.1346 27.3544 84.1899 27.3053C84.2451 27.2501 84.2727 27.1795 84.2727 27.0936C84.2727 27.0076 84.2451 26.9401 84.1899 26.891C84.1346 26.8358 84.064 26.8082 83.9781 26.8082H81.704C81.5137 26.8082 81.4185 26.9033 81.4185 27.0936C81.4185 27.2839 81.5137 27.379 81.704 27.379H82.284C82.4436 27.379 82.5234 27.4557 82.5234 27.6092V30.2884C82.5234 30.3743 82.551 30.4449 82.6062 30.5002Z" fill="white"/>
<path d="M88.4276 30.5002C88.4951 30.5554 88.5688 30.583 88.6486 30.583C88.7345 30.583 88.8081 30.5554 88.8695 30.5002C88.937 30.4511 88.9708 30.3774 88.9708 30.2792V27.066C88.9708 26.9616 88.937 26.8849 88.8695 26.8358C88.8081 26.7867 88.7345 26.7621 88.6486 26.7621C88.5688 26.7621 88.4951 26.7867 88.4276 26.8358C88.3601 26.8849 88.3263 26.9616 88.3263 27.066V30.2792C88.3263 30.3774 88.3601 30.4511 88.4276 30.5002Z" fill="white"/>
<path d="M90.7747 30.5094C90.8422 30.5585 90.9158 30.583 90.9956 30.583C91.0816 30.583 91.1552 30.5585 91.2166 30.5094C91.2841 30.4603 91.3179 30.3866 91.3179 30.2884L91.2902 28.1064C91.2902 28.0204 91.3179 27.9775 91.3731 27.9775C91.4099 27.9775 91.4437 28.002 91.4744 28.0511L92.9659 30.3713C93.015 30.4449 93.0733 30.4971 93.1409 30.5278C93.2145 30.5646 93.2882 30.583 93.3618 30.583C93.4662 30.583 93.5582 30.5493 93.638 30.4818C93.7178 30.4142 93.7577 30.313 93.7577 30.1779V27.0568C93.7577 26.9585 93.724 26.8849 93.6564 26.8358C93.5889 26.7867 93.5153 26.7621 93.4355 26.7621C93.3557 26.7621 93.282 26.7867 93.2145 26.8358C93.147 26.8849 93.1132 26.9585 93.1132 27.0568L93.1501 29.2756C93.1501 29.3616 93.1224 29.4045 93.0672 29.4045C93.0304 29.4045 92.9966 29.38 92.9659 29.3309L91.4468 26.9463C91.3731 26.8235 91.2565 26.7621 91.0969 26.7621C90.9926 26.7621 90.8943 26.799 90.8023 26.8726C90.7163 26.9401 90.6734 27.0445 90.6734 27.1856V30.2884C90.6734 30.3866 90.7071 30.4603 90.7747 30.5094Z" fill="white"/>
<path fill-rule="evenodd" clip-rule="evenodd" d="M95.5789 30.3621C95.6955 30.448 95.8183 30.491 95.9472 30.491H96.8863C97.2178 30.491 97.5093 30.4112 97.761 30.2516C98.0188 30.0859 98.2183 29.8649 98.3594 29.5887C98.5067 29.3125 98.5804 29.0056 98.5804 28.668C98.5804 28.2813 98.5006 27.9498 98.341 27.6736C98.1876 27.3974 97.9697 27.1856 97.6873 27.0383C97.4111 26.8849 97.0889 26.8082 96.7206 26.8082H95.8919C95.7631 26.8082 95.6495 26.8542 95.5513 26.9463C95.4592 27.0322 95.4132 27.1458 95.4132 27.2869V29.9938C95.4132 30.1534 95.4684 30.2761 95.5789 30.3621ZM96.7298 29.9201H96.3247C96.1467 29.9201 96.0577 29.8281 96.0577 29.6439V27.6552C96.0577 27.4711 96.1497 27.379 96.3339 27.379H96.7206C97.1134 27.379 97.4142 27.4895 97.6229 27.7104C97.8316 27.9314 97.939 28.2506 97.9451 28.668C97.9512 29.0792 97.85 29.3923 97.6413 29.6071C97.4326 29.8158 97.1288 29.9201 96.7298 29.9201Z" fill="white"/>
<path d="M100.201 30.5002C100.269 30.5554 100.343 30.583 100.422 30.583C100.508 30.583 100.582 30.5554 100.643 30.5002C100.711 30.4511 100.745 30.3774 100.745 30.2792V27.066C100.745 26.9616 100.711 26.8849 100.643 26.8358C100.582 26.7867 100.508 26.7621 100.422 26.7621C100.343 26.7621 100.269 26.7867 100.201 26.8358C100.134 26.8849 100.1 26.9616 100.1 27.066V30.2792C100.1 30.3774 100.134 30.4511 100.201 30.5002Z" fill="white"/>
<path fill-rule="evenodd" clip-rule="evenodd" d="M102.309 30.5002C102.37 30.5554 102.441 30.583 102.521 30.583C102.576 30.583 102.631 30.5677 102.687 30.537C102.748 30.5124 102.794 30.4695 102.825 30.4081L103.101 29.5979C103.113 29.5611 103.141 29.5426 103.184 29.5426H104.592C104.635 29.5426 104.66 29.5611 104.666 29.5979L104.97 30.4081C105.001 30.4695 105.044 30.5124 105.099 30.537C105.16 30.5677 105.218 30.583 105.274 30.583C105.354 30.583 105.424 30.5554 105.485 30.5002C105.547 30.4449 105.578 30.3713 105.578 30.2792C105.578 30.2485 105.571 30.2086 105.559 30.1595L104.335 27.0383C104.292 26.934 104.224 26.8542 104.132 26.799C104.046 26.7437 103.954 26.7161 103.856 26.7161C103.758 26.7161 103.666 26.7437 103.58 26.799C103.494 26.8542 103.429 26.934 103.386 27.0383L102.235 30.1595C102.223 30.2086 102.217 30.2485 102.217 30.2792C102.217 30.3713 102.248 30.4449 102.309 30.5002ZM104.289 28.9902H103.46C103.423 28.9902 103.392 28.9779 103.368 28.9534C103.349 28.9227 103.346 28.8889 103.359 28.8521L103.773 27.5816C103.791 27.5202 103.822 27.4895 103.865 27.4895C103.902 27.4895 103.93 27.5202 103.948 27.5816L104.39 28.8429C104.402 28.8859 104.396 28.9227 104.371 28.9534C104.353 28.9779 104.325 28.9902 104.289 28.9902Z" fill="white"/>
<defs>
<linearGradient id="paint0_linear_396_268" x1="7.83199" y1="38.3817" x2="28.4231" y2="2.38197" gradientUnits="userSpaceOnUse">
<stop offset="0.0965804" stop-color="#3D2C2C"/>
<stop offset="0.412085" stop-color="#AA8C60"/>
<stop offset="1" stop-color="#CAA954"/>
</linearGradient>
</defs>
</svg>
