<svg width="110" height="37" viewBox="0 0 110 37" fill="none" xmlns="http://www.w3.org/2000/svg">
<path fill-rule="evenodd" clip-rule="evenodd" d="M0.639548 13.392C-0.148734 16.0997 -0.31719 20.6261 0.759182 22.9577C1.17318 23.8545 2.55277 23.4599 2.55277 22.3599C2.54053 22.1559 2.52843 21.9567 2.51659 21.7619C2.18145 16.2459 2.06158 14.2728 5.243 9.14721C7.39528 5.67964 11.4607 3.69041 13.3739 3.16864L13.4443 3.14944C15.3095 2.64061 16.2229 2.39143 19.3526 2.39143C21.5645 2.39143 20.8352 0 19.3526 0C15.7056 0.0597857 13.2542 0.298928 9.60735 2.21207C5.39949 4.41955 2.01457 8.66893 0.639548 13.392ZM5.66162 19.1314C3.55717 23.149 3.41576 25.0502 3.6887 27.1427C3.84335 28.3284 5.66162 28.3384 5.66162 27.1427C5.66162 23.436 7.26519 20.2542 9.24876 18.1151C10.7163 16.5324 13.0846 15.2636 15.5264 13.9554L15.5264 13.9554L15.5264 13.9554L15.5264 13.9554C18.1577 12.5457 20.8743 11.0903 22.6408 9.14721C25.0322 6.51664 25.5532 3.22843 25.2115 2.03271C24.8699 0.837 23.1191 0.237397 23.1191 2.511C23.1191 5.50028 22.0037 6.84756 19.8308 8.66893C18.3605 9.90141 16.469 10.9071 14.52 11.9434C11.08 13.7724 7.46074 15.6967 5.66162 19.1314ZM20.218 13.2596L20.218 13.2595L20.218 13.2595C21.5334 12.3776 22.8786 11.4757 23.5973 10.7016C25.4162 8.74282 26.4074 6.91901 26.7062 4.6035C26.9453 2.75014 28.3802 3.54728 28.6193 4.185C28.8585 4.82271 28.715 7.34168 27.1845 9.68528C25.2713 12.6148 23.1191 14.229 20.907 15.5443C19.3901 16.4462 19.0539 16.8984 18.7226 17.3441C18.5707 17.5483 18.4199 17.7513 18.1568 17.9955C17.4872 18.6173 16.1035 17.2226 16.7818 16.0226C17.1996 15.2833 18.6887 14.2849 20.218 13.2596ZM13.4338 27.3221C11.9742 28.6602 9.90646 30.9692 10.3847 34.0182C10.6098 35.4531 12.7762 35.5129 12.5968 33.4802C12.2585 29.646 16.2675 27.8261 20.9151 25.7163L20.9153 25.7162L20.916 25.7159L20.9179 25.715C21.2699 25.5553 21.6255 25.3938 21.9832 25.2297C27.065 22.8981 29.8553 19.8978 31.3097 16.6804C33.2015 12.4954 32.8642 9.38634 32.2663 7.05478C31.9396 5.78066 30.0337 5.33871 30.2934 7.23415C30.951 12.0349 30.5366 16.3728 25.092 20.686C23.6336 21.8414 21.6093 22.7943 19.5748 23.752C17.2726 24.8357 14.9573 25.9256 13.4338 27.3221ZM9.60753 24.3329C7.45524 26.1863 6.7976 29.2952 6.7976 30.6104C6.7976 32.404 8.8901 32.2246 8.8901 30.6104C8.94988 27.8005 11.5207 25.1102 14.4502 23.5557C15.2346 23.1395 16.109 22.7319 16.9896 22.3213L16.9896 22.3213L16.9896 22.3213C19.3979 21.1986 21.8528 20.0542 22.6408 18.6533C23.3689 17.359 21.8736 16.3814 21.0266 17.3978C20.4287 18.1152 19.5476 18.8327 17.2601 19.7892C13.9719 21.1643 11.7598 22.4796 9.60753 24.3329ZM16.0046 34.0182C21.206 34.1377 28.1383 32.2707 32.4457 25.2297C35.3785 20.4356 34.4804 15.1094 34.0681 12.6645C34.0434 12.5177 34.0204 12.3814 34.0001 12.2561C33.7893 10.9564 35.3153 9.98419 35.9132 11.7779C36.6307 13.9301 38.5438 21.2839 33.1631 28.3984C27.7824 35.5129 21.1462 36.1106 17.1405 36.1106C14.0915 36.1106 15.2874 34.0017 16.0046 34.0182Z" fill="url(#paint0_linear_99_55)"/>
<path fill-rule="evenodd" clip-rule="evenodd" d="M48.5518 22.1576C48.9391 22.4895 49.3817 22.6554 49.8796 22.6554C50.3775 22.6554 50.8062 22.4895 51.1658 22.1576C51.553 21.798 51.7467 21.383 51.7467 20.9128L51.6637 17.0956C51.6637 16.5424 51.9403 16.2658 52.4935 16.2658H54.9415C56.6011 16.2658 57.9704 15.7402 59.0491 14.6891C60.1279 13.638 60.6673 12.2688 60.6673 10.5815C60.6673 9.03248 60.1141 7.78774 59.0076 6.84727C57.9289 5.9068 56.5597 5.43657 54.9 5.43657H50.7094C49.9072 5.43657 49.2572 5.68552 48.7593 6.18341C48.2614 6.68131 48.0125 7.33134 48.0125 8.1335V20.9128C48.0125 21.383 48.1922 21.798 48.5518 22.1576ZM54.4851 12.9465H52.2861C51.8711 12.9465 51.6637 12.739 51.6637 12.3241V9.37824C51.6637 8.96333 51.8711 8.75587 52.2861 8.75587H54.6511C56.2554 8.75587 57.0575 9.44739 57.0575 10.8304C57.0575 12.2411 56.2001 12.9465 54.4851 12.9465Z" fill="black"/>
<path fill-rule="evenodd" clip-rule="evenodd" d="M63.4252 20.9128C64.5869 22.0746 66.0944 22.6554 67.9477 22.6554C69.2478 22.6554 70.3404 22.2544 71.2255 21.4522C71.4468 22.2544 72.0139 22.6554 72.9267 22.6554C73.4799 22.6554 73.9225 22.5033 74.2544 22.199C74.614 21.8948 74.7938 21.5075 74.7938 21.0373V11.6188C74.7938 11.1762 74.614 10.8028 74.2544 10.4985C73.9225 10.1666 73.4799 10.0006 72.9267 10.0006C72.5118 10.0006 72.1522 10.1113 71.8479 10.3325C71.5436 10.5538 71.3362 10.8304 71.2255 11.1624C70.2574 10.2496 69.1233 9.79315 67.8232 9.79315C65.9976 9.79315 64.5178 10.374 63.3837 11.5358C62.2772 12.6699 61.724 14.2189 61.724 16.1828C61.724 18.1467 62.2911 19.7234 63.4252 20.9128ZM70.3542 18.4233C69.8287 19.0042 69.1233 19.2947 68.2382 19.2947C67.3807 19.2947 66.6753 19.0042 66.1221 18.4233C65.5965 17.8148 65.3338 17.068 65.3338 16.1828C65.3338 15.27 65.5965 14.537 66.1221 13.9838C66.6753 13.4306 67.3807 13.1539 68.2382 13.1539C69.1233 13.1539 69.8287 13.4306 70.3542 13.9838C70.8798 14.537 71.1425 15.27 71.1425 16.1828C71.1425 17.068 70.8798 17.8148 70.3542 18.4233Z" fill="black"/>
<path d="M78.4914 22.199C78.851 22.5033 79.2935 22.6554 79.8191 22.6554C80.317 22.6554 80.7319 22.5033 81.0638 22.199C81.4234 21.8671 81.6032 21.466 81.6032 20.9958V11.6603C81.6032 11.19 81.4372 10.8028 81.1053 10.4985C80.801 10.1666 80.3723 10.0006 79.8191 10.0006C79.2659 10.0006 78.8095 10.1666 78.4499 10.4985C78.1179 10.8028 77.952 11.1762 77.952 11.6188V21.0373C77.952 21.5075 78.1318 21.8948 78.4914 22.199Z" fill="black"/>
<path d="M78.3254 7.38666C78.7403 7.74625 79.2382 7.92605 79.8191 7.92605C80.3723 7.92605 80.8425 7.74625 81.2298 7.38666C81.6447 6.99941 81.8522 6.51534 81.8522 5.93447C81.8522 5.40891 81.6447 4.9525 81.2298 4.56525C80.8425 4.178 80.3723 3.98438 79.8191 3.98438C79.2382 3.98438 78.7403 4.178 78.3254 4.56525C77.9105 4.9525 77.703 5.40891 77.703 5.93447C77.703 6.51534 77.9105 6.99941 78.3254 7.38666Z" fill="black"/>
<path d="M84.6288 21.4937C85.8459 22.2682 87.3949 22.6554 89.2759 22.6554C90.9078 22.6554 92.2217 22.2959 93.2175 21.5767C94.2133 20.8298 94.7112 19.834 94.7112 18.5893C94.7112 17.6765 94.5176 16.9573 94.1303 16.4318C93.7431 15.9062 93.259 15.5328 92.6781 15.3115C92.1249 15.0625 91.544 14.8966 90.9355 14.8136C90.327 14.703 89.7876 14.62 89.3173 14.5647C88.5705 14.454 88.0864 14.3295 87.8652 14.1912C87.6715 14.0253 87.5747 13.8455 87.5747 13.6518C87.5747 13.2093 88.1003 12.988 89.1514 12.988C89.6769 12.988 90.1887 13.0433 90.6866 13.1539C91.2121 13.2646 91.6409 13.4306 91.9728 13.6518C92.1941 13.7625 92.4292 13.8178 92.6781 13.8178C93.1484 13.8178 93.5356 13.6518 93.8399 13.3199C94.1442 12.988 94.2963 12.6146 94.2963 12.1996C94.2963 11.7294 94.1027 11.3145 93.7154 10.9549C93.3005 10.5677 92.6781 10.2772 91.8483 10.0836C91.0461 9.88997 90.1887 9.79315 89.2759 9.79315C87.6992 9.79315 86.4406 10.1527 85.5001 10.8719C84.5597 11.5911 84.0894 12.5731 84.0894 13.8178C84.0894 14.62 84.2692 15.2562 84.6288 15.7264C85.0161 16.1966 85.4863 16.5562 86.0395 16.8052C86.5927 17.0265 87.146 17.1786 87.6992 17.2616C88.2801 17.3446 88.7503 17.3999 89.1099 17.4275C90.0227 17.5105 90.6036 17.6627 90.8525 17.884C91.1015 18.0776 91.2259 18.3127 91.2259 18.5893C91.2259 19.0595 90.7142 19.2947 89.6908 19.2947C89.1652 19.2947 88.5843 19.2255 87.9481 19.0872C87.3119 18.9212 86.7449 18.7276 86.247 18.5063C86.0257 18.3957 85.8044 18.3404 85.5831 18.3404C85.1129 18.3404 84.7118 18.534 84.3799 18.9212C84.0756 19.3085 83.9235 19.7372 83.9235 20.2075C83.9235 20.4288 83.9788 20.6639 84.0894 20.9128C84.2001 21.1341 84.3799 21.3277 84.6288 21.4937Z" fill="black"/>
<path fill-rule="evenodd" clip-rule="evenodd" d="M97.8662 20.9128C99.0279 22.0746 100.535 22.6554 102.389 22.6554C103.689 22.6554 104.781 22.2544 105.667 21.4522C105.888 22.2544 106.455 22.6554 107.368 22.6554C107.921 22.6554 108.363 22.5033 108.695 22.199C109.055 21.8948 109.235 21.5075 109.235 21.0373V11.6188C109.235 11.1762 109.055 10.8028 108.695 10.4985C108.363 10.1666 107.921 10.0006 107.368 10.0006C106.953 10.0006 106.593 10.1113 106.289 10.3325C105.985 10.5538 105.777 10.8304 105.667 11.1624C104.698 10.2496 103.564 9.79315 102.264 9.79315C100.439 9.79315 98.9588 10.374 97.8247 11.5358C96.7182 12.6699 96.165 14.2189 96.165 16.1828C96.165 18.1467 96.7321 19.7234 97.8662 20.9128ZM104.795 18.4233C104.27 19.0042 103.564 19.2947 102.679 19.2947C101.822 19.2947 101.116 19.0042 100.563 18.4233C100.038 17.8148 99.7748 17.068 99.7748 16.1828C99.7748 15.27 100.038 14.537 100.563 13.9838C101.116 13.4306 101.822 13.1539 102.679 13.1539C103.564 13.1539 104.27 13.4306 104.795 13.9838C105.321 14.537 105.584 15.27 105.584 16.1828C105.584 17.068 105.321 17.8148 104.795 18.4233Z" fill="black"/>
<path d="M51.6109 30.491C51.6784 30.5523 51.752 30.583 51.8318 30.583C51.9178 30.583 51.9914 30.5523 52.0528 30.491C52.1203 30.4357 52.1541 30.3682 52.1541 30.2884V29.1836C52.1541 29.0301 52.2277 28.9534 52.375 28.9534H53.3418C53.4277 28.9534 53.4983 28.9258 53.5535 28.8705C53.6088 28.8092 53.6364 28.7416 53.6364 28.668C53.6364 28.5943 53.6118 28.5299 53.5627 28.4746C53.5198 28.4133 53.4461 28.3826 53.3418 28.3826H52.375C52.2277 28.3826 52.1541 28.3028 52.1541 28.1432V27.6184C52.1541 27.4588 52.2339 27.379 52.3935 27.379H53.4246C53.5106 27.379 53.5812 27.3514 53.6364 27.2961C53.6916 27.2409 53.7193 27.1734 53.7193 27.0936C53.7193 27.0138 53.6947 26.9463 53.6456 26.891C53.6026 26.8358 53.529 26.8082 53.4246 26.8082H51.9883C51.8594 26.8082 51.7459 26.8542 51.6477 26.9463C51.5556 27.0322 51.5096 27.1458 51.5096 27.2869V30.2884C51.5096 30.3682 51.5433 30.4357 51.6109 30.491Z" fill="black"/>
<path d="M55.3357 30.5002C55.4033 30.5554 55.4769 30.583 55.5567 30.583C55.6426 30.583 55.7163 30.5554 55.7777 30.5002C55.8452 30.4511 55.879 30.3774 55.879 30.2792V27.066C55.879 26.9616 55.8452 26.8849 55.7777 26.8358C55.7163 26.7867 55.6426 26.7621 55.5567 26.7621C55.4769 26.7621 55.4033 26.7867 55.3357 26.8358C55.2682 26.8849 55.2345 26.9616 55.2345 27.066V30.2792C55.2345 30.3774 55.2682 30.4511 55.3357 30.5002Z" fill="black"/>
<path d="M57.6828 30.5094C57.7503 30.5585 57.824 30.583 57.9038 30.583C57.9897 30.583 58.0634 30.5585 58.1247 30.5094C58.1923 30.4603 58.226 30.3866 58.226 30.2884L58.1984 28.1064C58.1984 28.0204 58.226 27.9775 58.2813 27.9775C58.3181 27.9775 58.3518 28.002 58.3825 28.0511L59.8741 30.3713C59.9232 30.4449 59.9815 30.4971 60.049 30.5278C60.1227 30.5646 60.1963 30.583 60.27 30.583C60.3743 30.583 60.4664 30.5493 60.5462 30.4818C60.626 30.4142 60.6659 30.313 60.6659 30.1779V27.0568C60.6659 26.9585 60.6321 26.8849 60.5646 26.8358C60.4971 26.7867 60.4234 26.7621 60.3436 26.7621C60.2638 26.7621 60.1902 26.7867 60.1227 26.8358C60.0551 26.8849 60.0214 26.9585 60.0214 27.0568L60.0582 29.2756C60.0582 29.3616 60.0306 29.4045 59.9753 29.4045C59.9385 29.4045 59.9048 29.38 59.8741 29.3309L58.3549 26.9463C58.2813 26.8235 58.1646 26.7621 58.005 26.7621C57.9007 26.7621 57.8025 26.799 57.7104 26.8726C57.6245 26.9401 57.5815 27.0445 57.5815 27.1856V30.2884C57.5815 30.3866 57.6153 30.4603 57.6828 30.5094Z" fill="black"/>
<path d="M64.6691 30.491C64.8901 30.4357 65.0527 30.3682 65.1571 30.2884C65.2614 30.2086 65.3136 30.1135 65.3136 30.003C65.3136 29.9293 65.2891 29.8649 65.24 29.8096C65.1908 29.7483 65.1264 29.7176 65.0466 29.7176C64.9975 29.7176 64.9392 29.736 64.8717 29.7728C64.7919 29.8342 64.6722 29.8925 64.5126 29.9478C64.353 29.9969 64.1904 30.0214 64.0246 30.0214C63.6502 30.0214 63.3494 29.8894 63.1223 29.6255C62.8952 29.3616 62.7817 29.0424 62.7817 28.668C62.7817 28.4163 62.8308 28.1861 62.929 27.9775C63.0333 27.7688 63.1776 27.603 63.3617 27.4803C63.5459 27.3514 63.7607 27.2869 64.0062 27.2869C64.1351 27.2869 64.264 27.3023 64.3929 27.333C64.5279 27.3637 64.6446 27.3974 64.7428 27.4342C64.7919 27.4527 64.8348 27.4619 64.8717 27.4619C64.9576 27.4619 65.0251 27.4312 65.0742 27.3698C65.1295 27.3084 65.1571 27.2378 65.1571 27.158C65.1571 27.1089 65.1417 27.0598 65.1111 27.0107C65.0865 26.9555 65.0435 26.9125 64.9822 26.8818C64.8287 26.8204 64.6753 26.7775 64.5218 26.7529C64.3745 26.7284 64.2241 26.7161 64.0707 26.7161C63.684 26.7161 63.3433 26.799 63.0487 26.9647C62.7602 27.1243 62.5362 27.3483 62.3766 27.6368C62.217 27.9253 62.1372 28.2567 62.1372 28.6311C62.1372 29.0117 62.2201 29.3493 62.3858 29.6439C62.5515 29.9385 62.7755 30.1687 63.0579 30.3344C63.3402 30.5002 63.6594 30.583 64.0154 30.583C64.2302 30.583 64.4481 30.5523 64.6691 30.491Z" fill="black"/>
<path fill-rule="evenodd" clip-rule="evenodd" d="M66.8295 30.491C66.897 30.5523 66.9707 30.583 67.0505 30.583C67.1364 30.583 67.2101 30.5523 67.2715 30.491C67.3328 30.4357 67.3635 30.3682 67.3635 30.2884V29.3401C67.3635 29.1559 67.4433 29.0639 67.6029 29.0639H67.8331C67.9804 29.0639 68.1154 29.0976 68.2382 29.1652C68.361 29.2327 68.4622 29.3554 68.542 29.5334L68.9195 30.4173C68.9686 30.5339 69.0546 30.5922 69.1773 30.5922C69.251 30.5922 69.3216 30.5677 69.3891 30.5186C69.4627 30.4695 69.4996 30.3897 69.4996 30.2792C69.4996 30.2362 69.4903 30.1963 69.4719 30.1595L69.1405 29.4137C69.0791 29.2787 69.0085 29.1713 68.9287 29.0915C68.8551 29.0056 68.7753 28.9442 68.6893 28.9074C68.8858 28.8398 69.0453 28.7109 69.1681 28.5207C69.297 28.3242 69.3615 28.1186 69.3615 27.9038C69.3615 27.6767 69.3062 27.4833 69.1957 27.3238C69.0852 27.158 68.9379 27.0322 68.7538 26.9463C68.5758 26.8542 68.3824 26.8082 68.1737 26.8082H67.2715C67.1426 26.8082 67.0198 26.8511 66.9032 26.9371C66.7927 27.023 66.7375 27.1488 66.7375 27.3145V30.2884C66.7375 30.3682 66.7681 30.4357 66.8295 30.491ZM68.0817 28.5115H67.5661C67.431 28.5115 67.3635 28.4409 67.3635 28.2997V27.6C67.3635 27.4465 67.4403 27.3698 67.5937 27.3698H68.1185C68.272 27.3698 68.4131 27.4158 68.542 27.5079C68.6771 27.6 68.7446 27.7381 68.7446 27.9222C68.7446 28.1125 68.6709 28.2598 68.5236 28.3641C68.3824 28.4624 68.2351 28.5115 68.0817 28.5115Z" fill="black"/>
<path d="M71.0669 30.3529C71.159 30.4449 71.2817 30.491 71.4352 30.491H72.8899C72.982 30.491 73.0525 30.4633 73.1016 30.4081C73.1569 30.3529 73.1845 30.2884 73.1845 30.2148C73.1845 30.1411 73.16 30.0766 73.1109 30.0214C73.0679 29.96 72.9942 29.9293 72.8899 29.9293H71.8035C71.65 29.9293 71.5733 29.8495 71.5733 29.69V29.1283C71.5733 28.9749 71.6469 28.8982 71.7943 28.8982H72.7057C72.7978 28.8982 72.8684 28.8705 72.9175 28.8153C72.9727 28.7539 73.0004 28.6895 73.0004 28.6219C73.0004 28.5483 72.9758 28.4838 72.9267 28.4286C72.8837 28.3734 72.8101 28.3457 72.7057 28.3457H71.7943C71.6469 28.3457 71.5733 28.2659 71.5733 28.1064V27.6C71.5733 27.4404 71.6531 27.3606 71.8127 27.3606H72.7978C72.8899 27.3606 72.9605 27.333 73.0096 27.2777C73.0648 27.2225 73.0924 27.158 73.0924 27.0844C73.0924 27.0046 73.0679 26.9401 73.0188 26.891C72.9758 26.8358 72.9022 26.8082 72.7978 26.8082H71.4076C71.2787 26.8082 71.1651 26.8542 71.0669 26.9463C70.9748 27.0322 70.9288 27.1458 70.9288 27.2869V29.9846C70.9288 30.138 70.9748 30.2608 71.0669 30.3529Z" fill="black"/>
<path fill-rule="evenodd" clip-rule="evenodd" d="M74.8723 30.3621C74.9889 30.448 75.1117 30.491 75.2405 30.491H76.1797C76.5111 30.491 76.8027 30.4112 77.0543 30.2516C77.3121 30.0859 77.5116 29.8649 77.6528 29.5887C77.8001 29.3125 77.8738 29.0056 77.8738 28.668C77.8738 28.2813 77.794 27.9498 77.6344 27.6736C77.4809 27.3974 77.263 27.1856 76.9807 27.0383C76.7045 26.8849 76.3822 26.8082 76.0139 26.8082H75.1853C75.0564 26.8082 74.9429 26.8542 74.8446 26.9463C74.7526 27.0322 74.7065 27.1458 74.7065 27.2869V29.9938C74.7065 30.1534 74.7618 30.2761 74.8723 30.3621ZM76.0231 29.9201H75.618C75.44 29.9201 75.351 29.8281 75.351 29.6439V27.6552C75.351 27.4711 75.4431 27.379 75.6272 27.379H76.0139C76.4068 27.379 76.7075 27.4895 76.9162 27.7104C77.1249 27.9314 77.2323 28.2506 77.2385 28.668C77.2446 29.0792 77.1433 29.3923 76.9346 29.6071C76.7259 29.8158 76.4221 29.9201 76.0231 29.9201Z" fill="black"/>
<path d="M79.4948 30.5002C79.5623 30.5554 79.6359 30.583 79.7157 30.583C79.8017 30.583 79.8753 30.5554 79.9367 30.5002C80.0042 30.4511 80.038 30.3774 80.038 30.2792V27.066C80.038 26.9616 80.0042 26.8849 79.9367 26.8358C79.8753 26.7867 79.8017 26.7621 79.7157 26.7621C79.6359 26.7621 79.5623 26.7867 79.4948 26.8358C79.4272 26.8849 79.3935 26.9616 79.3935 27.066V30.2792C79.3935 30.3774 79.4272 30.4511 79.4948 30.5002Z" fill="black"/>
<path d="M82.606 30.5002C82.6674 30.5554 82.7472 30.583 82.8454 30.583C82.9436 30.583 83.0203 30.5554 83.0756 30.5002C83.1369 30.4449 83.1676 30.3743 83.1676 30.2884V27.6092C83.1676 27.4557 83.2474 27.379 83.407 27.379H83.9778C84.0638 27.379 84.1344 27.3544 84.1896 27.3053C84.2449 27.2501 84.2725 27.1795 84.2725 27.0936C84.2725 27.0076 84.2449 26.9401 84.1896 26.891C84.1344 26.8358 84.0638 26.8082 83.9778 26.8082H81.7037C81.5134 26.8082 81.4183 26.9033 81.4183 27.0936C81.4183 27.2839 81.5134 27.379 81.7037 27.379H82.2838C82.4433 27.379 82.5231 27.4557 82.5231 27.6092V30.2884C82.5231 30.3743 82.5508 30.4449 82.606 30.5002Z" fill="black"/>
<path d="M88.4273 30.5002C88.4949 30.5554 88.5685 30.583 88.6483 30.583C88.7342 30.583 88.8079 30.5554 88.8693 30.5002C88.9368 30.4511 88.9706 30.3774 88.9706 30.2792V27.066C88.9706 26.9616 88.9368 26.8849 88.8693 26.8358C88.8079 26.7867 88.7342 26.7621 88.6483 26.7621C88.5685 26.7621 88.4949 26.7867 88.4273 26.8358C88.3598 26.8849 88.3261 26.9616 88.3261 27.066V30.2792C88.3261 30.3774 88.3598 30.4511 88.4273 30.5002Z" fill="black"/>
<path d="M90.7744 30.5094C90.8419 30.5585 90.9156 30.583 90.9954 30.583C91.0813 30.583 91.155 30.5585 91.2164 30.5094C91.2839 30.4603 91.3176 30.3866 91.3176 30.2884L91.29 28.1064C91.29 28.0204 91.3176 27.9775 91.3729 27.9775C91.4097 27.9775 91.4435 28.002 91.4741 28.0511L92.9657 30.3713C93.0148 30.4449 93.0731 30.4971 93.1406 30.5278C93.2143 30.5646 93.2879 30.583 93.3616 30.583C93.4659 30.583 93.558 30.5493 93.6378 30.4818C93.7176 30.4142 93.7575 30.313 93.7575 30.1779V27.0568C93.7575 26.9585 93.7237 26.8849 93.6562 26.8358C93.5887 26.7867 93.515 26.7621 93.4352 26.7621C93.3554 26.7621 93.2818 26.7867 93.2143 26.8358C93.1468 26.8849 93.113 26.9585 93.113 27.0568L93.1498 29.2756C93.1498 29.3616 93.1222 29.4045 93.067 29.4045C93.0301 29.4045 92.9964 29.38 92.9657 29.3309L91.4465 26.9463C91.3729 26.8235 91.2562 26.7621 91.0967 26.7621C90.9923 26.7621 90.8941 26.799 90.802 26.8726C90.7161 26.9401 90.6731 27.0445 90.6731 27.1856V30.2884C90.6731 30.3866 90.7069 30.4603 90.7744 30.5094Z" fill="black"/>
<path fill-rule="evenodd" clip-rule="evenodd" d="M95.5787 30.3621C95.6953 30.448 95.8181 30.491 95.9469 30.491H96.8861C97.2175 30.491 97.5091 30.4112 97.7607 30.2516C98.0185 30.0859 98.218 29.8649 98.3592 29.5887C98.5065 29.3125 98.5802 29.0056 98.5802 28.668C98.5802 28.2813 98.5004 27.9498 98.3408 27.6736C98.1873 27.3974 97.9694 27.1856 97.6871 27.0383C97.4109 26.8849 97.0886 26.8082 96.7203 26.8082H95.8917C95.7628 26.8082 95.6493 26.8542 95.551 26.9463C95.459 27.0322 95.4129 27.1458 95.4129 27.2869V29.9938C95.4129 30.1534 95.4682 30.2761 95.5787 30.3621ZM96.7295 29.9201H96.3244C96.1464 29.9201 96.0574 29.8281 96.0574 29.6439V27.6552C96.0574 27.4711 96.1495 27.379 96.3336 27.379H96.7203C97.1132 27.379 97.4139 27.4895 97.6226 27.7104C97.8313 27.9314 97.9387 28.2506 97.9449 28.668C97.951 29.0792 97.8497 29.3923 97.641 29.6071C97.4323 29.8158 97.1285 29.9201 96.7295 29.9201Z" fill="black"/>
<path d="M100.201 30.5002C100.269 30.5554 100.342 30.583 100.422 30.583C100.508 30.583 100.582 30.5554 100.643 30.5002C100.711 30.4511 100.744 30.3774 100.744 30.2792V27.066C100.744 26.9616 100.711 26.8849 100.643 26.8358C100.582 26.7867 100.508 26.7621 100.422 26.7621C100.342 26.7621 100.269 26.7867 100.201 26.8358C100.134 26.8849 100.1 26.9616 100.1 27.066V30.2792C100.1 30.3774 100.134 30.4511 100.201 30.5002Z" fill="black"/>
<path fill-rule="evenodd" clip-rule="evenodd" d="M102.309 30.5002C102.37 30.5554 102.441 30.583 102.521 30.583C102.576 30.583 102.631 30.5677 102.686 30.537C102.748 30.5124 102.794 30.4695 102.824 30.4081L103.101 29.5979C103.113 29.5611 103.141 29.5426 103.184 29.5426H104.592C104.635 29.5426 104.66 29.5611 104.666 29.5979L104.97 30.4081C105 30.4695 105.043 30.5124 105.099 30.537C105.16 30.5677 105.218 30.583 105.273 30.583C105.353 30.583 105.424 30.5554 105.485 30.5002C105.547 30.4449 105.577 30.3713 105.577 30.2792C105.577 30.2485 105.571 30.2086 105.559 30.1595L104.334 27.0383C104.291 26.934 104.224 26.8542 104.132 26.799C104.046 26.7437 103.954 26.7161 103.856 26.7161C103.757 26.7161 103.665 26.7437 103.579 26.799C103.493 26.8542 103.429 26.934 103.386 27.0383L102.235 30.1595C102.223 30.2086 102.217 30.2485 102.217 30.2792C102.217 30.3713 102.247 30.4449 102.309 30.5002ZM104.288 28.9902H103.46C103.423 28.9902 103.392 28.9779 103.368 28.9534C103.349 28.9227 103.346 28.8889 103.358 28.8521L103.773 27.5816C103.791 27.5202 103.822 27.4895 103.865 27.4895C103.902 27.4895 103.929 27.5202 103.948 27.5816L104.39 28.8429C104.402 28.8859 104.396 28.9227 104.371 28.9534C104.353 28.9779 104.325 28.9902 104.288 28.9902Z" fill="black"/>
<defs>
<linearGradient id="paint0_linear_99_55" x1="7.83194" y1="38.3825" x2="28.4237" y2="2.38249" gradientUnits="userSpaceOnUse">
<stop offset="0.0965804" stop-color="#3D2C2C"/>
<stop offset="0.412085" stop-color="#AA8C60"/>
<stop offset="1" stop-color="#CAA954"/>
</linearGradient>
</defs>
</svg>
